<svg width="18" height="16" viewBox="0 0 18 16" fill="none" xmlns="http://www.w3.org/2000/svg">
<path d="M14.625 4.66667V3H12.9584V2.16667H14.625V0.5H15.4584V2.16667H17.125V3H15.4584V4.66667H14.625ZM1.81254 15.5C1.42365 15.5 1.10087 15.3717 0.844207 15.115C0.586985 14.8578 0.458374 14.5347 0.458374 14.1458V5.1875C0.458374 4.79861 0.586985 4.47583 0.844207 4.21917C1.10087 3.96194 1.42365 3.83333 1.81254 3.83333H4.27087L5.81254 2.16667H10.875V3H6.16671L4.62504 4.66667H1.81254C1.65976 4.66667 1.53476 4.71528 1.43754 4.8125C1.34032 4.90972 1.29171 5.03472 1.29171 5.1875V14.1458C1.29171 14.2986 1.34032 14.4236 1.43754 14.5208C1.53476 14.6181 1.65976 14.6667 1.81254 14.6667H14.1042C14.257 14.6667 14.382 14.6181 14.4792 14.5208C14.5764 14.4236 14.625 14.2986 14.625 14.1458V6.75H15.4584V14.1458C15.4584 14.5347 15.33 14.8578 15.0734 15.115C14.8162 15.3717 14.4931 15.5 14.1042 15.5H1.81254ZM7.95837 12.7708C8.83337 12.7708 9.56948 12.4722 10.1667 11.875C10.7639 11.2778 11.0625 10.5417 11.0625 9.66667C11.0625 8.79167 10.7639 8.05556 10.1667 7.45833C9.56948 6.86111 8.83337 6.5625 7.95837 6.5625C7.08337 6.5625 6.34726 6.86111 5.75004 7.45833C5.15282 8.05556 4.85421 8.79167 4.85421 9.66667C4.85421 10.5417 5.15282 11.2778 5.75004 11.875C6.34726 12.4722 7.08337 12.7708 7.95837 12.7708ZM7.95837 11.9375C7.3056 11.9375 6.76393 11.7222 6.33337 11.2917C5.90282 10.8611 5.68754 10.3194 5.68754 9.66667C5.68754 9.01389 5.90282 8.47222 6.33337 8.04167C6.76393 7.61111 7.3056 7.39583 7.95837 7.39583C8.61115 7.39583 9.15282 7.61111 9.58337 8.04167C10.0139 8.47222 10.2292 9.01389 10.2292 9.66667C10.2292 10.3194 10.0139 10.8611 9.58337 11.2917C9.15282 11.7222 8.61115 11.9375 7.95837 11.9375Z" fill="#31373D"/>
</svg>
