<svg width="16" height="16" viewBox="0 0 16 16" fill="none" xmlns="http://www.w3.org/2000/svg">
<path d="M8.00004 15.5001C7.06949 15.5001 6.20143 15.3265 5.39587 14.9792C4.59032 14.632 3.8856 14.1565 3.28171 13.5526C2.67726 12.9481 2.20143 12.2431 1.85421 11.4376C1.50699 10.632 1.33337 9.76397 1.33337 8.83341C1.33337 7.90286 1.50699 7.0348 1.85421 6.22925C2.20143 5.42369 2.67726 4.71869 3.28171 4.11425C3.8856 3.51036 4.59032 3.0348 5.39587 2.68758C6.20143 2.34036 7.06949 2.16675 8.00004 2.16675C8.9306 2.16675 9.79865 2.34036 10.6042 2.68758C11.4098 3.0348 12.1148 3.51036 12.7192 4.11425C13.3231 4.71869 13.7987 5.42369 14.1459 6.22925C14.4931 7.0348 14.6667 7.90286 14.6667 8.83341C14.6667 9.76397 14.4931 10.632 14.1459 11.4376C13.7987 12.2431 13.3231 12.9481 12.7192 13.5526C12.1148 14.1565 11.4098 14.632 10.6042 14.9792C9.79865 15.3265 8.9306 15.5001 8.00004 15.5001ZM10.625 12.0417L11.2084 11.4584L8.41671 8.66675V4.66675H7.58337V9.00008L10.625 12.0417ZM2.91671 0.854248L3.52087 1.43758L0.604207 4.35425L0.020874 3.75008L2.91671 0.854248ZM13.0834 0.854248L15.9792 3.75008L15.3959 4.35425L12.4792 1.43758L13.0834 0.854248ZM8.00004 14.6667C9.61115 14.6667 10.9862 14.0973 12.125 12.9584C13.2639 11.8195 13.8334 10.4445 13.8334 8.83341C13.8334 7.2223 13.2639 5.8473 12.125 4.70841C10.9862 3.56953 9.61115 3.00008 8.00004 3.00008C6.38893 3.00008 5.01393 3.56953 3.87504 4.70841C2.73615 5.8473 2.16671 7.2223 2.16671 8.83341C2.16671 10.4445 2.73615 11.8195 3.87504 12.9584C5.01393 14.0973 6.38893 14.6667 8.00004 14.6667Z" fill="#31373D"/>
</svg>
