<svg xmlns="http://www.w3.org/2000/svg" width="16" height="16" fill="none" viewBox="0 0 16 16"><mask id="mask0_1672_3522" style="mask-type:alpha" width="16" height="16" x="0" y="0" maskUnits="userSpaceOnUse"><rect width="16" height="16" fill="#C4C4C4"/></mask><g mask="url(#mask0_1672_3522)"><path fill="#56616B" d="M4.00026 4.81668C3.77804 4.81668 3.58648 4.73602 3.42559 4.57468C3.26426 4.41379 3.18359 4.22224 3.18359 4.00002C3.18359 3.77779 3.26426 3.58602 3.42559 3.42468C3.58648 3.26379 3.77804 3.18335 4.00026 3.18335C4.22248 3.18335 4.41426 3.26379 4.57559 3.42468C4.73648 3.58602 4.81693 3.77779 4.81693 4.00002C4.81693 4.22224 4.73648 4.41379 4.57559 4.57468C4.41426 4.73602 4.22248 4.81668 4.00026 4.81668ZM8.00026 12.8167C7.77804 12.8167 7.58626 12.7362 7.42493 12.5754C7.26404 12.414 7.18359 12.2222 7.18359 12C7.18359 11.7778 7.26404 11.586 7.42493 11.4247C7.58626 11.2638 7.77804 11.1833 8.00026 11.1833C8.22248 11.1833 8.41426 11.2638 8.57559 11.4247C8.73648 11.586 8.81693 11.7778 8.81693 12C8.81693 12.2222 8.73648 12.414 8.57559 12.5754C8.41426 12.7362 8.22248 12.8167 8.00026 12.8167ZM4.00026 12.8167C3.77804 12.8167 3.58648 12.7362 3.42559 12.5754C3.26426 12.414 3.18359 12.2222 3.18359 12C3.18359 11.7778 3.26426 11.586 3.42559 11.4247C3.58648 11.2638 3.77804 11.1833 4.00026 11.1833C4.22248 11.1833 4.41426 11.2638 4.57559 11.4247C4.73648 11.586 4.81693 11.7778 4.81693 12C4.81693 12.2222 4.73648 12.414 4.57559 12.5754C4.41426 12.7362 4.22248 12.8167 4.00026 12.8167ZM4.00026 8.81668C3.77804 8.81668 3.58648 8.73624 3.42559 8.57535C3.26426 8.41402 3.18359 8.22224 3.18359 8.00002C3.18359 7.77779 3.26426 7.58602 3.42559 7.42468C3.58648 7.26379 3.77804 7.18335 4.00026 7.18335C4.22248 7.18335 4.41426 7.26379 4.57559 7.42468C4.73648 7.58602 4.81693 7.77779 4.81693 8.00002C4.81693 8.22224 4.73648 8.41402 4.57559 8.57535C4.41426 8.73624 4.22248 8.81668 4.00026 8.81668ZM8.00026 8.81668C7.77804 8.81668 7.58626 8.73624 7.42493 8.57535C7.26404 8.41402 7.18359 8.22224 7.18359 8.00002C7.18359 7.77779 7.26404 7.58602 7.42493 7.42468C7.58626 7.26379 7.77804 7.18335 8.00026 7.18335C8.22248 7.18335 8.41426 7.26379 8.57559 7.42468C8.73648 7.58602 8.81693 7.77779 8.81693 8.00002C8.81693 8.22224 8.73648 8.41402 8.57559 8.57535C8.41426 8.73624 8.22248 8.81668 8.00026 8.81668ZM12.0003 4.81668C11.778 4.81668 11.5865 4.73602 11.4256 4.57468C11.2643 4.41379 11.1836 4.22224 11.1836 4.00002C11.1836 3.77779 11.2643 3.58602 11.4256 3.42468C11.5865 3.26379 11.778 3.18335 12.0003 3.18335C12.2225 3.18335 12.4143 3.26379 12.5756 3.42468C12.7365 3.58602 12.8169 3.77779 12.8169 4.00002C12.8169 4.22224 12.7365 4.41379 12.5756 4.57468C12.4143 4.73602 12.2225 4.81668 12.0003 4.81668ZM8.00026 4.81668C7.77804 4.81668 7.58626 4.73602 7.42493 4.57468C7.26404 4.41379 7.18359 4.22224 7.18359 4.00002C7.18359 3.77779 7.26404 3.58602 7.42493 3.42468C7.58626 3.26379 7.77804 3.18335 8.00026 3.18335C8.22248 3.18335 8.41426 3.26379 8.57559 3.42468C8.73648 3.58602 8.81693 3.77779 8.81693 4.00002C8.81693 4.22224 8.73648 4.41379 8.57559 4.57468C8.41426 4.73602 8.22248 4.81668 8.00026 4.81668ZM12.0003 8.81668C11.778 8.81668 11.5865 8.73624 11.4256 8.57535C11.2643 8.41402 11.1836 8.22224 11.1836 8.00002C11.1836 7.77779 11.2643 7.58602 11.4256 7.42468C11.5865 7.26379 11.778 7.18335 12.0003 7.18335C12.2225 7.18335 12.4143 7.26379 12.5756 7.42468C12.7365 7.58602 12.8169 7.77779 12.8169 8.00002C12.8169 8.22224 12.7365 8.41402 12.5756 8.57535C12.4143 8.73624 12.2225 8.81668 12.0003 8.81668ZM12.0003 12.8167C11.778 12.8167 11.5865 12.7362 11.4256 12.5754C11.2643 12.414 11.1836 12.2222 11.1836 12C11.1836 11.7778 11.2643 11.586 11.4256 11.4247C11.5865 11.2638 11.778 11.1833 12.0003 11.1833C12.2225 11.1833 12.4143 11.2638 12.5756 11.4247C12.7365 11.586 12.8169 11.7778 12.8169 12C12.8169 12.2222 12.7365 12.414 12.5756 12.5754C12.4143 12.7362 12.2225 12.8167 12.0003 12.8167Z"/></g></svg>