<svg xmlns="http://www.w3.org/2000/svg" width="16" height="16" fill="none" viewBox="0 0 16 16"><mask id="mask0_1581_3023" style="mask-type:alpha" width="16" height="16" x="0" y="0" maskUnits="userSpaceOnUse"><rect width="16" height="16" fill="#C4C4C4"/></mask><g mask="url(#mask0_1581_3023)"><path fill="#56616B" d="M8 13.3335C7.4 13.3335 6.84711 13.1862 6.34133 12.8915C5.836 12.5973 5.42778 12.1891 5.11667 11.6669H3.25V11.0002H4.83333C4.73333 10.678 4.68067 10.3473 4.67533 10.0082C4.66956 9.66953 4.66667 9.33353 4.66667 9.0002H3.25V8.33353H4.66667C4.66667 7.98908 4.664 7.64731 4.65867 7.3082C4.65289 6.96953 4.71111 6.64464 4.83333 6.33353H3.25V5.66686H5.11667C5.28333 5.37797 5.48889 5.11953 5.73333 4.89153C5.97778 4.66397 6.25 4.47797 6.55 4.33353L5.36667 3.13353L5.8 2.7002L7.21667 4.1002C7.47222 4.02242 7.73067 3.98353 7.992 3.98353C8.25289 3.98353 8.51667 4.02242 8.78333 4.1002L10.2167 2.7002L10.6667 3.13353L9.46667 4.33353C9.76667 4.47797 10.0362 4.66397 10.2753 4.89153C10.514 5.11953 10.7167 5.37797 10.8833 5.66686H12.75V6.33353H11.1667C11.2889 6.64464 11.3473 6.96953 11.342 7.3082C11.3362 7.64731 11.3333 7.98908 11.3333 8.33353H12.75V9.0002H11.3333C11.3333 9.33353 11.3307 9.66953 11.3253 10.0082C11.3196 10.3473 11.2667 10.678 11.1667 11.0002H12.75V11.6669H10.8833C10.5722 12.1891 10.164 12.5973 9.65867 12.8915C9.15289 13.1862 8.6 13.3335 8 13.3335ZM8 12.6669C8.73333 12.6669 9.36111 12.4058 9.88333 11.8835C10.4056 11.3613 10.6667 10.7335 10.6667 10.0002V7.33353C10.6667 6.6002 10.4056 5.97242 9.88333 5.4502C9.36111 4.92797 8.73333 4.66686 8 4.66686C7.26667 4.66686 6.63889 4.92797 6.11667 5.4502C5.59444 5.97242 5.33333 6.6002 5.33333 7.33353V10.0002C5.33333 10.7335 5.59444 11.3613 6.11667 11.8835C6.63889 12.4058 7.26667 12.6669 8 12.6669ZM6.86667 10.3335H9.13333V9.66686H6.86667V10.3335ZM6.86667 7.66686H9.13333V7.0002H6.86667V7.66686Z"/></g></svg>