<svg width="10" height="14" viewBox="0 0 10 14" fill="none" xmlns="http://www.w3.org/2000/svg">
<path d="M2.1875 12.8334H7.8125C7.95139 12.8334 8.07278 12.7812 8.17667 12.6767C8.28111 12.5729 8.33333 12.4515 8.33333 12.3126V4.50008H1.66667V12.3126C1.66667 12.4515 1.71889 12.5729 1.82333 12.6767C1.92722 12.7812 2.04861 12.8334 2.1875 12.8334ZM0.1875 2.52091V1.68758H2.25L3.08333 0.854248H6.91667L7.75 1.68758H9.8125V2.52091H0.1875ZM2.1875 13.6667C1.79861 13.6667 1.47583 13.5384 1.21917 13.2817C0.961944 13.0245 0.833333 12.7015 0.833333 12.3126V3.66675H9.16667V12.3126C9.16667 12.7015 9.03833 13.0245 8.78167 13.2817C8.52444 13.5384 8.20139 13.6667 7.8125 13.6667H2.1875ZM1.66667 12.8334H8.33333C8.33333 12.8334 8.28111 12.8334 8.17667 12.8334C8.07278 12.8334 7.95139 12.8334 7.8125 12.8334H2.1875C2.04861 12.8334 1.92722 12.8334 1.82333 12.8334C1.71889 12.8334 1.66667 12.8334 1.66667 12.8334Z" fill="#31373D"/>
</svg>
