<svg width="12" height="16" viewBox="0 0 12 16" fill="none" xmlns="http://www.w3.org/2000/svg">
<path d="M1.52079 15.5C1.1319 15.5 0.809126 15.3717 0.552459 15.115C0.295237 14.8578 0.166626 14.5347 0.166626 14.1458V1.85417C0.166626 1.46528 0.295237 1.14222 0.552459 0.885C0.809126 0.628333 1.1319 0.5 1.52079 0.5H8.27079L11.8333 4.0625V14.1458C11.8333 14.5347 11.705 14.8578 11.4483 15.115C11.1911 15.3717 10.868 15.5 10.4791 15.5H1.52079ZM1.52079 14.6667H10.4791C10.618 14.6667 10.7394 14.6144 10.8433 14.51C10.9477 14.4061 11 14.2847 11 14.1458V4.47917H7.85413V1.33333H1.52079C1.3819 1.33333 1.26051 1.38556 1.15663 1.49C1.05218 1.59389 0.999959 1.71528 0.999959 1.85417V14.1458C0.999959 14.2847 1.05218 14.4061 1.15663 14.51C1.26051 14.6144 1.3819 14.6667 1.52079 14.6667ZM5.99996 13.1667C6.76385 13.1667 7.40274 12.8889 7.91663 12.3333C8.43052 11.7778 8.68746 11.1111 8.68746 10.3333V6.52083H7.85413V10.3333C7.85413 10.875 7.67718 11.3439 7.32329 11.74C6.96885 12.1356 6.52774 12.3333 5.99996 12.3333C5.47218 12.3333 5.03135 12.1356 4.67746 11.74C4.32301 11.3439 4.14579 10.875 4.14579 10.3333V5.79167C4.14579 5.56944 4.21163 5.37833 4.34329 5.21833C4.47551 5.05889 4.64579 4.97917 4.85413 4.97917C5.07635 4.97917 5.25329 5.05889 5.38496 5.21833C5.51718 5.37833 5.58329 5.56944 5.58329 5.79167V10.3333H6.41663V5.79167C6.41663 5.34722 6.26746 4.96167 5.96913 4.635C5.67024 4.30889 5.29857 4.14583 4.85413 4.14583C4.40968 4.14583 4.04163 4.30889 3.74996 4.635C3.45829 4.96167 3.31246 5.34722 3.31246 5.79167V10.3333C3.31246 11.1111 3.57301 11.7778 4.09413 12.3333C4.61468 12.8889 5.24996 13.1667 5.99996 13.1667Z" fill="#31373D"/>
</svg>
