<svg width="16" height="12" viewBox="0 0 16 12" fill="none" xmlns="http://www.w3.org/2000/svg">
<path d="M0.166626 11.5209V10.1459C0.166626 9.75703 0.267459 9.42369 0.469126 9.14591C0.670237 8.86814 0.937459 8.64592 1.27079 8.47925C1.99301 8.13203 2.7119 7.85786 3.42746 7.65675C4.14246 7.45508 4.99996 7.35425 5.99996 7.35425C6.99996 7.35425 7.85774 7.45508 8.57329 7.65675C9.28829 7.85786 10.0069 8.13203 10.7291 8.47925C11.0625 8.64592 11.33 8.86814 11.5316 9.14591C11.7327 9.42369 11.8333 9.75703 11.8333 10.1459V11.5209H0.166626ZM12.375 7.62508C12.7777 7.70841 13.1702 7.82647 13.5525 7.97925C13.9341 8.13203 14.3125 8.29869 14.6875 8.47925C15.0486 8.6598 15.33 8.8923 15.5316 9.17675C15.7327 9.46175 15.8333 9.77091 15.8333 10.1042V11.5209H13.5V10.1042C13.5 9.61814 13.4027 9.1598 13.2083 8.72925C13.0138 8.29869 12.7361 7.93064 12.375 7.62508ZM5.99996 5.47925C5.30552 5.47925 4.71524 5.23619 4.22913 4.75008C3.74301 4.26397 3.49996 3.67369 3.49996 2.97925C3.49996 2.29869 3.74301 1.71175 4.22913 1.21841C4.71524 0.725637 5.30552 0.479248 5.99996 0.479248C6.68052 0.479248 7.26746 0.725637 7.76079 1.21841C8.25357 1.71175 8.49996 2.29869 8.49996 2.97925C8.49996 3.67369 8.25357 4.26397 7.76079 4.75008C7.26746 5.23619 6.68052 5.47925 5.99996 5.47925ZM12.0625 2.97925C12.0625 3.67369 11.8161 4.26397 11.3233 4.75008C10.83 5.23619 10.243 5.47925 9.56246 5.47925C9.52079 5.47925 9.47218 5.47591 9.41663 5.46925C9.36107 5.46203 9.3194 5.45842 9.29163 5.45842C9.5694 5.11119 9.78468 4.72564 9.93746 4.30175C10.0902 3.87841 10.1666 3.43758 10.1666 2.97925C10.1666 2.5348 10.0866 2.10425 9.92663 1.68758C9.76718 1.27091 9.55552 0.882026 9.29163 0.520915C9.33329 0.507026 9.37496 0.49647 9.41663 0.489248C9.45829 0.482581 9.5069 0.479248 9.56246 0.479248C10.243 0.479248 10.83 0.725637 11.3233 1.21841C11.8161 1.71175 12.0625 2.29869 12.0625 2.97925ZM0.999959 10.6876H11V10.1459C11 9.95147 10.9513 9.78147 10.8541 9.63591C10.7569 9.4898 10.5833 9.3473 10.3333 9.20842C9.70829 8.87508 9.05218 8.62175 8.36496 8.44841C7.67718 8.27453 6.88885 8.18758 5.99996 8.18758C5.11107 8.18758 4.32301 8.27453 3.63579 8.44841C2.94801 8.62175 2.29163 8.87508 1.66663 9.20842C1.41663 9.3473 1.24302 9.4898 1.14579 9.63591C1.04857 9.78147 0.999959 9.95147 0.999959 10.1459V10.6876ZM5.99996 4.64591C6.45829 4.64591 6.85079 4.48258 7.17746 4.15591C7.50357 3.8298 7.66663 3.43758 7.66663 2.97925C7.66663 2.52091 7.50357 2.12869 7.17746 1.80258C6.85079 1.47591 6.45829 1.31258 5.99996 1.31258C5.54163 1.31258 5.1494 1.47591 4.82329 1.80258C4.49663 2.12869 4.33329 2.52091 4.33329 2.97925C4.33329 3.43758 4.49663 3.8298 4.82329 4.15591C5.1494 4.48258 5.54163 4.64591 5.99996 4.64591Z" fill="#4D5760"/>
</svg>
