<svg width="12" height="16" viewBox="0 0 12 16" fill="none" xmlns="http://www.w3.org/2000/svg">
<path d="M2.91671 14.6667H9.08337V12.1667C9.08337 11.2222 8.79171 10.3992 8.20837 9.6975C7.62504 8.99639 6.88893 8.64583 6.00004 8.64583C5.11115 8.64583 4.37504 8.99639 3.79171 9.6975C3.20837 10.3992 2.91671 11.2222 2.91671 12.1667V14.6667ZM6.00004 7.35417C6.88893 7.35417 7.62504 7.00333 8.20837 6.30167C8.79171 5.60056 9.08337 4.77778 9.08337 3.83333V1.33333H2.91671V3.83333C2.91671 4.77778 3.20837 5.60056 3.79171 6.30167C4.37504 7.00333 5.11115 7.35417 6.00004 7.35417ZM11.25 15.5H0.750041C0.625041 15.5 0.524485 15.4583 0.448374 15.375C0.371707 15.2917 0.333374 15.1944 0.333374 15.0833C0.333374 14.9583 0.371707 14.8575 0.448374 14.7808C0.524485 14.7047 0.625041 14.6667 0.750041 14.6667H2.08337V12.1667C2.08337 11.2083 2.3506 10.3403 2.88504 9.5625C3.42004 8.78472 4.13893 8.26389 5.04171 8C4.13893 7.73611 3.42004 7.21528 2.88504 6.4375C2.3506 5.65972 2.08337 4.79167 2.08337 3.83333V1.33333H0.750041C0.625041 1.33333 0.524485 1.29167 0.448374 1.20833C0.371707 1.125 0.333374 1.02778 0.333374 0.916667C0.333374 0.791667 0.371707 0.690833 0.448374 0.614167C0.524485 0.538056 0.625041 0.5 0.750041 0.5H11.25C11.375 0.5 11.4759 0.541667 11.5525 0.625C11.6287 0.708333 11.6667 0.805556 11.6667 0.916667C11.6667 1.04167 11.6287 1.14222 11.5525 1.21833C11.4759 1.295 11.375 1.33333 11.25 1.33333H9.91671V3.83333C9.91671 4.79167 9.64949 5.65972 9.11504 6.4375C8.58004 7.21528 7.86115 7.73611 6.95837 8C7.86115 8.26389 8.58004 8.78472 9.11504 9.5625C9.64949 10.3403 9.91671 11.2083 9.91671 12.1667V14.6667H11.25C11.375 14.6667 11.4759 14.7083 11.5525 14.7917C11.6287 14.875 11.6667 14.9722 11.6667 15.0833C11.6667 15.2083 11.6287 15.3092 11.5525 15.3858C11.4759 15.4619 11.375 15.5 11.25 15.5Z" fill="#31373D"/>
</svg>
