<svg width="18" height="18" viewBox="0 0 18 18" fill="none" xmlns="http://www.w3.org/2000/svg">
<path fill-rule="evenodd" clip-rule="evenodd" d="M17.3334 2.75008C17.3334 1.60024 16.3999 0.666748 15.25 0.666748H2.75002C1.60018 0.666748 0.666687 1.60024 0.666687 2.75008V15.2501C0.666687 16.3999 1.60018 17.3334 2.75002 17.3334H15.25C16.3999 17.3334 17.3334 16.3999 17.3334 15.2501V2.75008Z" fill="#2867B2"/>
<path d="M5.44407 6.4812H2.6524V14.8784H5.44407V6.4812Z" fill="white"/>
<path d="M4.06879 2.43262C3.11368 2.43262 2.48962 3.06055 2.48962 3.88356C2.48962 4.68929 3.0947 5.33454 4.03184 5.33454H4.04988C5.02328 5.33454 5.62917 4.68929 5.62917 3.88356C5.61111 3.06055 5.02335 2.43262 4.06879 2.43262Z" fill="white"/>
<path d="M12.3046 6.28589C10.8238 6.28589 10.1605 7.10024 9.78906 7.67225V6.48335H6.99811C7.03512 7.27101 6.99811 14.8805 6.99811 14.8805H9.78903V10.1909C9.78903 9.93992 9.80706 9.68898 9.88105 9.50959C10.0825 9.00828 10.542 8.48901 11.3131 8.48901C12.3226 8.48901 12.727 9.25933 12.727 10.3877V14.8805H15.5181V10.0651C15.5181 7.48576 14.141 6.28589 12.3046 6.28589Z" fill="white"/>
</svg>
