<svg width="12" height="12" viewBox="0 0 12 12" fill="none" xmlns="http://www.w3.org/2000/svg">
<path d="M5.48412 8.69984L5.01745 8.2165L6.56745 6.6665H0.800781V5.99984H6.56745L5.01745 4.44984L5.48412 3.9665L7.85078 6.33317L5.48412 8.69984ZM5.85078 11.9998V11.3332H10.1341C10.2341 11.3332 10.3259 11.2914 10.4094 11.2078C10.4926 11.1247 10.5341 11.0276 10.5341 10.9165V1.74984C10.5341 1.63873 10.4926 1.54162 10.4094 1.4585C10.3259 1.37495 10.2341 1.33317 10.1341 1.33317H5.85078V0.666504H10.1341C10.4341 0.666504 10.6868 0.769393 10.8921 0.97517C11.0979 1.1805 11.2008 1.43873 11.2008 1.74984V10.9165C11.2008 11.2276 11.0979 11.4861 10.8921 11.6918C10.6868 11.8972 10.4341 11.9998 10.1341 11.9998H5.85078Z" fill="#56616B"/>
</svg>
