<svg xmlns="http://www.w3.org/2000/svg" width="14" height="12" fill="none" viewBox="0 0 14 12"><mask id="path-1-inside-1_2920_729" fill="#fff"><path d="M6.33301 2.66667L5.39967 3.6L7.13301 5.33333H0.333008V6.66667H7.13301L5.39967 8.4L6.33301 9.33333L9.66634 6L6.33301 2.66667ZM12.333 10.6667H6.99967V12H12.333C13.0663 12 13.6663 11.4 13.6663 10.6667V1.33333C13.6663 0.6 13.0663 0 12.333 0H6.99967V1.33333H12.333V10.6667Z"/></mask><path fill="#E11900" d="M6.33301 2.66667L5.39967 3.6L7.13301 5.33333H0.333008V6.66667H7.13301L5.39967 8.4L6.33301 9.33333L9.66634 6L6.33301 2.66667ZM12.333 10.6667H6.99967V12H12.333C13.0663 12 13.6663 11.4 13.6663 10.6667V1.33333C13.6663 0.6 13.0663 0 12.333 0H6.99967V1.33333H12.333V10.6667Z"/><path fill="#E11900" d="M6.33301 2.66667L7.39367 1.60601L6.33301 0.545346L5.27235 1.60601L6.33301 2.66667ZM5.39967 3.6L4.33901 2.53934L3.27835 3.6L4.33901 4.66066L5.39967 3.6ZM7.13301 5.33333V6.83333H10.7543L8.19367 4.27267L7.13301 5.33333ZM0.333008 5.33333V3.83333H-1.16699V5.33333H0.333008ZM0.333008 6.66667H-1.16699V8.16667H0.333008V6.66667ZM7.13301 6.66667L8.19367 7.72733L10.7543 5.16667H7.13301V6.66667ZM5.39967 8.4L4.33901 7.33934L3.27835 8.4L4.33901 9.46066L5.39967 8.4ZM6.33301 9.33333L5.27235 10.394L6.33301 11.4547L7.39367 10.394L6.33301 9.33333ZM9.66634 6L10.727 7.06066L11.7877 6L10.727 4.93934L9.66634 6ZM12.333 10.6667V12.1667H13.833V10.6667H12.333ZM6.99967 10.6667V9.16667H5.49967V10.6667H6.99967ZM6.99967 12H5.49967V13.5H6.99967V12ZM6.99967 0V-1.5H5.49967V0H6.99967ZM6.99967 1.33333H5.49967V2.83333H6.99967V1.33333ZM12.333 1.33333H13.833V-0.166667H12.333V1.33333ZM5.27235 1.60601L4.33901 2.53934L6.46034 4.66066L7.39367 3.72733L5.27235 1.60601ZM4.33901 4.66066L6.07235 6.39399L8.19367 4.27267L6.46034 2.53934L4.33901 4.66066ZM7.13301 3.83333H0.333008V6.83333H7.13301V3.83333ZM-1.16699 5.33333V6.66667H1.83301V5.33333H-1.16699ZM0.333008 8.16667H7.13301V5.16667H0.333008V8.16667ZM6.07235 5.60601L4.33901 7.33934L6.46034 9.46066L8.19367 7.72733L6.07235 5.60601ZM4.33901 9.46066L5.27235 10.394L7.39367 8.27267L6.46034 7.33934L4.33901 9.46066ZM7.39367 10.394L10.727 7.06066L8.60568 4.93934L5.27235 8.27267L7.39367 10.394ZM10.727 4.93934L7.39367 1.60601L5.27235 3.72733L8.60568 7.06066L10.727 4.93934ZM12.333 9.16667H6.99967V12.1667H12.333V9.16667ZM5.49967 10.6667V12H8.49967V10.6667H5.49967ZM6.99967 13.5H12.333V10.5H6.99967V13.5ZM12.333 13.5C13.8948 13.5 15.1663 12.2284 15.1663 10.6667H12.1663C12.1663 10.6162 12.1884 10.5733 12.214 10.5477C12.2397 10.522 12.2825 10.5 12.333 10.5V13.5ZM15.1663 10.6667V1.33333H12.1663V10.6667H15.1663ZM15.1663 1.33333C15.1663 -0.228427 13.8948 -1.5 12.333 -1.5V1.5C12.2825 1.5 12.2397 1.47799 12.214 1.45233C12.1884 1.42667 12.1663 1.38383 12.1663 1.33333H15.1663ZM12.333 -1.5H6.99967V1.5H12.333V-1.5ZM5.49967 0V1.33333H8.49967V0H5.49967ZM6.99967 2.83333H12.333V-0.166667H6.99967V2.83333ZM10.833 1.33333V10.6667H13.833V1.33333H10.833Z" mask="url(#path-1-inside-1_2920_729)"/></svg>