<svg width="16" height="16" viewBox="0 0 16 16" fill="none" xmlns="http://www.w3.org/2000/svg">
<mask id="mask0_1581_3019" style="mask-type:alpha" maskUnits="userSpaceOnUse" x="0" y="0" width="16" height="16">
<rect width="16" height="16" fill="#C4C4C4"/>
</mask>
<g mask="url(#mask0_1581_3019)">
<path d="M2.66667 11.05V12.25C2.66667 12.3611 2.70844 12.4582 2.792 12.5413C2.87511 12.6248 2.97222 12.6666 3.08333 12.6666H12.9167C13.0278 12.6666 13.1249 12.6248 13.208 12.5413C13.2916 12.4582 13.3333 12.3611 13.3333 12.25V11.05H2.66667ZM3.08333 4.69995H5.3C5.24444 4.59995 5.19733 4.4944 5.15867 4.38328C5.11956 4.27217 5.1 4.15551 5.1 4.03328C5.1 3.65551 5.22778 3.33884 5.48333 3.08328C5.73889 2.82773 6.05556 2.69995 6.43333 2.69995C6.65556 2.69995 6.864 2.75817 7.05867 2.87462C7.25289 2.99151 7.42222 3.13884 7.56667 3.31662L7.96667 3.86662L8.38333 3.31662C8.52778 3.12773 8.69733 2.97773 8.892 2.86662C9.08622 2.75551 9.29444 2.69995 9.51667 2.69995C9.89444 2.69995 10.2111 2.82773 10.4667 3.08328C10.7222 3.33884 10.85 3.65551 10.85 4.03328C10.85 4.15551 10.8333 4.27217 10.8 4.38328C10.7667 4.4944 10.7167 4.59995 10.65 4.69995H12.9167C13.2278 4.69995 13.4862 4.80262 13.692 5.00795C13.8973 5.21373 14 5.46662 14 5.76662V12.25C14 12.5611 13.8973 12.8195 13.692 13.0253C13.4862 13.2306 13.2278 13.3333 12.9167 13.3333H3.08333C2.77222 13.3333 2.514 13.2306 2.30867 13.0253C2.10289 12.8195 2 12.5611 2 12.25V5.76662C2 5.46662 2.10289 5.21373 2.30867 5.00795C2.514 4.80262 2.77222 4.69995 3.08333 4.69995ZM2.66667 9.61662H13.3333V5.76662C13.3333 5.66662 13.2916 5.57484 13.208 5.49128C13.1249 5.40817 13.0278 5.36662 12.9167 5.36662H9.03333L10.3667 7.18328L9.83333 7.56662L7.96667 5.03328L6.11667 7.56662L5.58333 7.18328L6.9 5.36662H3.08333C2.97222 5.36662 2.87511 5.40817 2.792 5.49128C2.70844 5.57484 2.66667 5.66662 2.66667 5.76662V9.61662ZM6.43333 4.69995C6.62222 4.69995 6.78067 4.63595 6.90867 4.50795C7.03622 4.3804 7.1 4.22217 7.1 4.03328C7.1 3.8444 7.03622 3.68617 6.90867 3.55862C6.78067 3.43062 6.62222 3.36662 6.43333 3.36662C6.24444 3.36662 6.08622 3.43062 5.95867 3.55862C5.83067 3.68617 5.76667 3.8444 5.76667 4.03328C5.76667 4.22217 5.83067 4.3804 5.95867 4.50795C6.08622 4.63595 6.24444 4.69995 6.43333 4.69995ZM9.51667 4.69995C9.70556 4.69995 9.864 4.63595 9.992 4.50795C10.1196 4.3804 10.1833 4.22217 10.1833 4.03328C10.1833 3.8444 10.1196 3.68617 9.992 3.55862C9.864 3.43062 9.70556 3.36662 9.51667 3.36662C9.32778 3.36662 9.16933 3.43062 9.04133 3.55862C8.91378 3.68617 8.85 3.8444 8.85 4.03328C8.85 4.22217 8.91378 4.3804 9.04133 4.50795C9.16933 4.63595 9.32778 4.69995 9.51667 4.69995Z" fill="#56616B"/>
</g>
</svg>
