<svg width="12" height="12" viewBox="0 0 12 12" fill="none" xmlns="http://www.w3.org/2000/svg">
<path d="M4.74935 12L4.51602 10.0667C4.3049 10.0111 4.07446 9.914 3.82468 9.77533C3.57446 9.63622 3.36602 9.48889 3.19935 9.33333L1.41602 10.0833L0.166016 7.91667L1.71602 6.75C1.69379 6.63889 1.67446 6.51933 1.65802 6.39133C1.64113 6.26378 1.63268 6.13889 1.63268 6.01667C1.63268 5.90556 1.64113 5.786 1.65802 5.658C1.67446 5.53045 1.69379 5.39444 1.71602 5.25L0.166016 4.08333L1.41602 1.95L3.18268 2.68333C3.38268 2.51667 3.59668 2.36667 3.82468 2.23333C4.05224 2.1 4.27713 2 4.49935 1.93333L4.74935 0H7.24935L7.48268 1.93333C7.73824 2.03333 7.96335 2.13889 8.15802 2.25C8.35224 2.36111 8.5549 2.50556 8.76602 2.68333L10.5827 1.95L11.8327 4.08333L10.2327 5.28333C10.2771 5.41667 10.2993 5.54178 10.2993 5.65867C10.2993 5.77511 10.2993 5.88889 10.2993 6C10.2993 6.1 10.2967 6.20844 10.2913 6.32533C10.2856 6.44178 10.266 6.58333 10.2327 6.75L11.7993 7.91667L10.5493 10.0833L8.76602 9.31667C8.5549 9.49444 8.34668 9.64444 8.14135 9.76667C7.93557 9.88889 7.71602 9.98889 7.48268 10.0667L7.24935 12H4.74935ZM5.98268 7.66667C6.44935 7.66667 6.84379 7.50556 7.16602 7.18333C7.48824 6.86111 7.64935 6.46667 7.64935 6C7.64935 5.53333 7.48824 5.13889 7.16602 4.81667C6.84379 4.49444 6.44935 4.33333 5.98268 4.33333C5.51602 4.33333 5.12157 4.49444 4.79935 4.81667C4.47713 5.13889 4.31602 5.53333 4.31602 6C4.31602 6.46667 4.47713 6.86111 4.79935 7.18333C5.12157 7.50556 5.51602 7.66667 5.98268 7.66667ZM5.98268 7C5.7049 7 5.4689 6.90267 5.27468 6.708C5.08002 6.51378 4.98268 6.27778 4.98268 6C4.98268 5.72222 5.08002 5.48622 5.27468 5.292C5.4689 5.09733 5.7049 5 5.98268 5C6.26046 5 6.49668 5.09733 6.69135 5.292C6.88557 5.48622 6.98268 5.72222 6.98268 6C6.98268 6.27778 6.88557 6.51378 6.69135 6.708C6.49668 6.90267 6.26046 7 5.98268 7ZM5.33268 11.3333H6.63268L6.88268 9.53333C7.21601 9.44444 7.5189 9.32222 7.79135 9.16667C8.06335 9.01111 8.33824 8.79444 8.61602 8.51667L10.266 9.23333L10.9327 8.1L9.48268 7C9.53824 6.81111 9.57446 6.636 9.59135 6.47467C9.60779 6.31378 9.61601 6.15556 9.61601 6C9.61601 5.83333 9.60779 5.67489 9.59135 5.52467C9.57446 5.37489 9.53824 5.20556 9.48268 5.01667L10.966 3.9L10.2993 2.76667L8.59935 3.48333C8.39935 3.26111 8.13557 3.05267 7.80802 2.858C7.48002 2.66378 7.16602 2.53333 6.86602 2.46667L6.66602 0.666667H5.33268L5.13268 2.46667C4.79935 2.53333 4.4909 2.64711 4.20735 2.808C3.92424 2.96933 3.64379 3.18889 3.36602 3.46667L1.69935 2.76667L1.03268 3.9L2.48268 4.98333C2.42713 5.12778 2.38824 5.28889 2.36602 5.46667C2.34379 5.64444 2.33268 5.82778 2.33268 6.01667C2.33268 6.18333 2.34379 6.35 2.36602 6.51667C2.38824 6.68333 2.42157 6.84444 2.46602 7L1.03268 8.1L1.69935 9.23333L3.34935 8.53333C3.61602 8.8 3.88824 9.01111 4.16602 9.16667C4.44379 9.32222 4.76046 9.44444 5.11602 9.53333L5.33268 11.3333Z" fill="#56616B"/>
</svg>
