<svg width="16" height="16" viewBox="0 0 16 16" fill="none" xmlns="http://www.w3.org/2000/svg">
<path d="M4.25 1.70833V0.875H11.75V1.70833H4.25ZM1.75 4.02083V3.1875H14.25V4.02083H1.75ZM1.85417 15.5C1.46528 15.5 1.1425 15.3717 0.885833 15.115C0.628611 14.8578 0.5 14.5347 0.5 14.1458V6.85417C0.5 6.46528 0.628611 6.14222 0.885833 5.885C1.1425 5.62833 1.46528 5.5 1.85417 5.5H14.1458C14.5347 5.5 14.8578 5.62833 15.115 5.885C15.3717 6.14222 15.5 6.46528 15.5 6.85417V14.1458C15.5 14.5347 15.3717 14.8578 15.115 15.115C14.8578 15.3717 14.5347 15.5 14.1458 15.5H1.85417ZM1.85417 14.6667H14.1458C14.2847 14.6667 14.4061 14.6144 14.51 14.51C14.6144 14.4061 14.6667 14.2847 14.6667 14.1458V6.85417C14.6667 6.71528 14.6144 6.59389 14.51 6.49C14.4061 6.38556 14.2847 6.33333 14.1458 6.33333H1.85417C1.71528 6.33333 1.59389 6.38556 1.49 6.49C1.38556 6.59389 1.33333 6.71528 1.33333 6.85417V14.1458C1.33333 14.2847 1.38556 14.4061 1.49 14.51C1.59389 14.6144 1.71528 14.6667 1.85417 14.6667ZM6.75 13.0625L10.6042 10.5L6.75 7.9375V13.0625Z" fill="#31373D"/>
</svg>
