<svg width="16" height="16" viewBox="0 0 16 16" fill="none" xmlns="http://www.w3.org/2000/svg">
<mask id="mask0_2026_4507" style="mask-type:alpha" maskUnits="userSpaceOnUse" x="0" y="0" width="16" height="16">
<rect width="16" height="16" fill="#D9D9D9"/>
</mask>
<g mask="url(#mask0_2026_4507)">
<path d="M9.33333 7.63333C9.8 7.63333 10.1944 7.47222 10.5167 7.15C10.8389 6.82778 11 6.43333 11 5.96667C11 5.51111 10.8389 5.11956 10.5167 4.792C10.1944 4.464 9.8 4.3 9.33333 4.3C8.86667 4.3 8.47222 4.464 8.15 4.792C7.82778 5.11956 7.66667 5.51111 7.66667 5.96667C7.66667 6.43333 7.82778 6.82778 8.15 7.15C8.47222 7.47222 8.86667 7.63333 9.33333 7.63333ZM5.71667 10.6333C6.22778 10.0778 6.79178 9.67222 7.40867 9.41667C8.02511 9.16111 8.66667 9.03333 9.33333 9.03333C10 9.03333 10.6418 9.16111 11.2587 9.41667C11.8751 9.67222 12.4389 10.0778 12.95 10.6333C13.0722 10.6333 13.1667 10.5944 13.2333 10.5167C13.3 10.4389 13.3333 10.3389 13.3333 10.2167V3.08333C13.3333 2.97222 13.2916 2.87511 13.208 2.792C13.1249 2.70844 13.0278 2.66667 12.9167 2.66667H5.75C5.63889 2.66667 5.54178 2.70844 5.45867 2.792C5.37511 2.87511 5.33333 2.97222 5.33333 3.08333V10.2167C5.33333 10.3389 5.36667 10.4389 5.43333 10.5167C5.5 10.5944 5.59444 10.6333 5.71667 10.6333ZM5.75 11.3333C5.43889 11.3333 5.18067 11.2307 4.97533 11.0253C4.76956 10.8196 4.66667 10.5611 4.66667 10.25V3.08333C4.66667 2.77222 4.76956 2.51378 4.97533 2.308C5.18067 2.10267 5.43889 2 5.75 2H12.9167C13.2278 2 13.4862 2.10267 13.692 2.308C13.8973 2.51378 14 2.77222 14 3.08333V10.25C14 10.5611 13.8973 10.8196 13.692 11.0253C13.4862 11.2307 13.2278 11.3333 12.9167 11.3333H5.75ZM3.08333 14C2.77222 14 2.514 13.8973 2.30867 13.692C2.10289 13.4862 2 13.2278 2 12.9167V5C2 4.9 2.03067 4.81933 2.092 4.758C2.15289 4.69711 2.23333 4.66667 2.33333 4.66667C2.43333 4.66667 2.51378 4.69711 2.57467 4.758C2.636 4.81933 2.66667 4.9 2.66667 5V12.9167C2.66667 13.0389 2.70556 13.1389 2.78333 13.2167C2.86111 13.2944 2.96111 13.3333 3.08333 13.3333H11C11.1 13.3333 11.1807 13.3638 11.242 13.4247C11.3029 13.486 11.3333 13.5667 11.3333 13.6667C11.3333 13.7667 11.3029 13.8473 11.242 13.9087C11.1807 13.9696 11.1 14 11 14H3.08333ZM9.33333 6.96667C9.05556 6.96667 8.81956 6.86933 8.62533 6.67467C8.43067 6.48044 8.33333 6.24444 8.33333 5.96667C8.33333 5.7 8.43067 5.46667 8.62533 5.26667C8.81956 5.06667 9.05556 4.96667 9.33333 4.96667C9.61111 4.96667 9.84711 5.06667 10.0413 5.26667C10.236 5.46667 10.3333 5.7 10.3333 5.96667C10.3333 6.24444 10.236 6.48044 10.0413 6.67467C9.84711 6.86933 9.61111 6.96667 9.33333 6.96667ZM6.65 10.6667H12.0167C11.6611 10.3556 11.2556 10.1167 10.8 9.95C10.3444 9.78333 9.85556 9.7 9.33333 9.7C8.81111 9.7 8.32222 9.78333 7.86667 9.95C7.41111 10.1167 7.00556 10.3556 6.65 10.6667Z" fill="#56616B"/>
</g>
</svg>
